{"title":"Inside.Combat.Rescue.S01.Special.The.Golden.Hour.HDTV.XviD-AFG","uid":11943534,"size":465163480,"categoryP":"video","categoryS":"tv_shows","magnet":"?xt=urn:btih:ec18b1b26c5c9c0af43e3b5f461fb9b8d5264580&amp;dn=Inside.Combat.Rescue.S01.Special.The.Golden.Hour.HDTV.XviD-AFG&amp;tr=udp%3A%2F%2Ftracker.openbittorrent.com%3A80&amp;tr=udp%3A%2F%2Fopen.demonii.com%3A1337&amp;tr=udp%3A%2F%2Ftracker.coppersurfer.tk%3A6969&amp;tr=udp%3A%2F%2Fexodus.desync.com%3A6969","seeders":1,"leechers":0,"uploader":"toots2boots","files":3,"time":1432017178,"description":"Season Special THE GOLDEN HOUR\nThe elite Combat Rescue members of the U.S. Air Force , Pararescuemen, or PJs, have one mission: rescue American or Allied forces in extreme danger. For the first time in their history, the PJs allow camera crews to extensively cover their missions in Afghanistan. Inside Combat Rescue is the story of the lives of these elite airmen on and off the battlefield.\n\nGeneral\nComplete name                            : G:Torrent uploadInside Combat RescueInside.Combat.Rescue.S01.Special.The.Golden.Hour.HDTV.XviD-AFGInside.Combat.Rescue.S01.Special.The.Golden.Hour.HDTV.XviD-AFG.avi\nFormat                                   : AVI\nFormat/Info                              : Audio Video Interleave\nFile size                                : 444 MiB\nDuration                                 : 43mn 58s\nOverall bit rate mode                    : Variable\nOverall bit rate                         : 1 410 Kbps\n\nVideo\nID                                       : 0\nFormat                                   : MPEG-4 Visual\nFormat profile                           : Advanced Simple@L5\nFormat settings, BVOP                    : 2\nFormat settings, QPel                    : No\nFormat settings, GMC                     : No warppoints\nFormat settings, Matrix                  : Default (H.263)\nCodec ID                                 : XVID\nCodec ID/Hint                            : XviD\nDuration                                 : 43mn 58s\nBit rate                                 : 1 268 Kbps\nWidth                                    : 640 pixels\nHeight                                   : 360 pixels\nDisplay aspect ratio                     : 16:9\nFrame rate                               : 29.970 fps\nColor space                              : YUV\nChroma subsampling                       : 4:2:0\nBit depth                                : 8 bits\nScan type                                : Progressive\nCompression mode                         : Lossy\nBits/(Pixel*Frame)                       : 0.184\nStream size                              : 399 MiB (90%)\nWriting library                          : XviD 64\n\nAudio\nID                                       : 1\nFormat                                   : MPEG Audio\nFormat version                           : Version 1\nFormat profile                           : Layer 3\nMode                                     : Joint stereo\nMode extension                           : MS Stereo\nCodec ID                                 : 55\nCodec ID/Hint                            : MP3\nDuration                                 : 43mn 58s\nBit rate mode                            : Variable\nBit rate                                 : 128 Kbps\nChannel(s)                               : 2 channels\nSampling rate                            : 48.0 KHz\nCompression mode                         : Lossy\nStream size                              : 40.3 MiB (9%)\nAlignment                                : Aligned on interleaves\nInterleave, duration                     : 24 ms (0.72 video frame)\nInterleave, preload duration             : 178 ms\nTitle                                    : Inside.Combat.Rescue.S01.Special.The.Golden.Hour.HDTV.XviD-AFG_360p.audio","torrent":{"xt":"urn:btih:ec18b1b26c5c9c0af43e3b5f461fb9b8d5264580","amp;dn":"Inside.Combat.Rescue.S01.Special.The.Golden.Hour.HDTV.XviD-AFG","amp;tr":["udp%3A%2F%2Ftracker.openbittorrent.com%3A80","udp%3A%2F%2Fopen.demonii.com%3A1337","udp%3A%2F%2Ftracker.coppersurfer.tk%3A6969","udp%3A%2F%2Fexodus.desync.com%3A6969"],"infoHash":"ec18b1b26c5c9c0af43e3b5f461fb9b8d5264580","infoHashBuffer":{"type":"Buffer","data":[236,24,177,178,108,92,156,10,244,62,59,95,70,31,185,184,213,38,69,128]},"announce":[],"urlList":[]}}